<svg xmlns="http://www.w3.org/2000/svg" xmlns:xlink="http://www.w3.org/1999/xlink" viewBox="0 0 1224 668">
  <path fill="none" opacity="1.000000" stroke="none" d="
M698.000000,669.000000 
	C465.363983,669.000000 233.227966,669.000000 1.045977,669.000000 
	C1.045977,446.393402 1.045977,223.786774 1.045977,1.090074 
	C408.886047,1.090074 816.772156,1.090074 1224.829102,1.090074 
	C1224.829102,223.666565 1224.829102,446.333282 1224.829102,669.000000 
	C1049.453369,669.000000 873.976685,669.000000 698.000000,669.000000 
M672.844543,255.482300 
	C672.896362,252.004089 673.078491,248.521805 672.969849,245.048615 
	C672.802368,239.692154 672.435791,234.341904 672.023438,228.243546 
	C671.716858,227.360657 671.628235,226.296295 671.068542,225.624100 
	C667.233337,221.018173 661.140259,219.694016 654.878784,221.979431 
	C650.215637,223.681473 647.188477,228.525055 647.078186,234.475800 
	C646.718506,253.881577 646.415283,273.288666 645.948120,292.691864 
	C645.874023,295.772217 645.690857,299.109467 644.483337,301.855316 
	C640.537842,310.827667 636.606995,319.877380 631.710571,328.342133 
	C626.010010,338.197205 619.721130,347.784027 612.900269,356.898010 
	C606.534424,365.403931 598.892639,372.639832 586.903625,372.053619 
	C581.295715,371.779419 576.875977,368.590546 577.156494,363.066986 
	C577.747253,351.431946 578.116577,339.594849 580.627136,328.296234 
	C583.787537,314.072845 588.761475,300.226227 593.384277,286.360809 
	C598.739502,270.298950 604.423828,254.342209 610.247498,238.443237 
	C612.835022,231.379150 612.177185,227.508926 606.402466,222.915100 
	C600.615662,218.311646 588.502380,221.982788 586.940247,228.591263 
	C585.854797,233.183502 584.076782,237.612030 582.229736,243.273651 
	C580.044800,238.790726 578.983459,235.254135 576.867493,232.539658 
	C571.597168,225.778870 564.614807,221.360428 556.304810,218.940140 
	C537.137207,213.357635 519.996033,219.131638 504.425232,229.475479 
	C490.940094,238.433807 480.223694,250.696030 471.380402,264.303711 
	C463.743042,276.055695 458.973114,289.181061 453.606598,302.092987 
	C447.733307,316.224030 439.768738,329.509888 432.351685,342.963470 
	C429.369141,348.373474 425.772217,353.544739 421.813385,358.289368 
	C417.558655,363.388550 413.461609,369.047089 406.614532,371.072113 
	C398.099823,373.590363 394.231506,372.037628 393.986572,364.973663 
	C393.802338,359.659332 393.341217,354.074066 394.662842,349.045593 
	C397.544098,338.083191 401.320953,327.342529 405.038635,316.617645 
	C408.489380,306.662811 411.981293,296.694580 416.092407,287.002594 
	C423.112671,270.452271 417.643677,250.922729 398.263519,244.919510 
	C389.106354,242.082962 380.107697,238.734772 370.960022,235.591873 
	C372.331543,230.559280 374.038696,225.930130 374.809082,221.150009 
	C376.812378,208.719467 377.907104,196.831116 366.762939,186.849762 
	C359.779144,180.594650 352.169189,180.609467 345.187683,182.818665 
	C330.482544,187.471893 324.261505,198.983490 323.239899,214.138580 
	C322.289001,228.244598 328.701721,239.695328 339.349884,248.004730 
	C336.920624,253.633438 334.795166,259.072632 332.264954,264.316559 
	C326.551117,276.158600 320.561920,287.867615 314.832642,299.702362 
	C311.296631,307.006653 308.374939,314.625671 304.554565,321.770325 
	C300.369080,329.597839 304.683655,335.400757 311.656860,338.864288 
	C317.527802,341.780334 323.844360,337.883789 327.339111,330.245422 
	C331.598846,320.935028 335.853668,311.620605 340.265350,302.381836 
	C347.137146,287.991272 354.139404,273.662933 361.482758,258.489136 
	C369.143433,260.954498 377.326538,263.444397 385.409058,266.226562 
	C394.881012,269.487030 394.387390,274.063690 391.613922,282.581085 
	C389.618042,288.710388 386.251251,294.383270 384.087036,300.469910 
	C379.843536,312.404572 376.090363,324.512512 371.990845,336.499695 
	C366.854858,351.517395 366.380371,366.635345 373.622009,380.821503 
	C376.432495,386.327148 381.897552,391.986755 387.496613,394.243469 
	C398.907990,398.842926 410.847748,398.325623 421.361664,390.272491 
	C424.194366,388.102783 427.179901,386.132599 430.706177,383.789490 
	C433.838226,379.874725 436.970306,375.959961 440.716217,371.765503 
	C443.666412,367.936554 446.616608,364.107574 449.738342,360.056000 
	C450.232880,360.992065 450.740448,361.649323 450.948242,362.390625 
	C455.681091,379.275574 464.739258,391.898682 483.125916,395.603760 
	C494.705292,397.937103 505.924744,396.912872 516.496338,391.717621 
	C530.706482,384.734253 540.870422,372.897919 551.576721,361.402405 
	C551.734802,361.887390 551.910583,362.258911 551.974976,362.648834 
	C554.765320,379.539673 561.514771,392.793243 580.478149,396.285248 
	C588.937439,397.843018 596.812378,396.525818 604.436462,393.652161 
	C611.322510,391.056671 616.757446,386.160034 621.987366,380.807922 
	C628.344849,374.301941 634.550903,367.802216 639.430908,360.101562 
	C640.981445,357.654694 642.666870,355.293304 644.578491,352.467133 
	C645.092957,359.773254 645.185303,366.252563 646.077881,372.619690 
	C647.643616,383.788239 650.860168,394.182922 665.086792,396.242920 
	C671.000366,397.099182 678.526184,396.308380 683.330627,393.196716 
	C691.286011,388.044281 698.066223,380.803223 704.539490,373.710205 
	C711.671875,365.894928 718.141296,357.432800 724.442505,348.914398 
	C729.235168,342.435455 733.313416,335.428009 737.857422,328.427826 
	C751.557678,335.682770 764.867310,335.791901 777.987244,329.076294 
	C777.987244,331.471039 778.250244,333.482971 777.944885,335.404541 
	C775.816956,348.793945 776.620117,361.960541 780.462402,374.971985 
	C783.530762,385.362549 800.147522,396.750702 812.729248,396.973999 
	C827.250610,397.231659 839.195068,391.297546 849.137817,381.228424 
	C855.406494,374.879913 861.081299,367.945038 866.830017,361.489410 
	C867.032227,369.062866 870.362732,375.830048 875.226562,382.714111 
	C885.182556,395.485992 898.278137,398.992584 913.722412,395.972229 
	C923.679443,394.024963 932.426453,390.048859 939.649841,381.816864 
	C940.780579,380.577576 941.911255,379.338287 943.658997,377.813354 
	C946.446594,374.716614 949.114624,371.499420 952.067200,368.568848 
	C953.803650,366.845276 955.992188,365.577118 958.005005,364.925446 
	C958.335693,366.685120 958.668396,368.444427 958.996765,370.204529 
	C961.214966,382.095367 968.810303,390.300903 979.352173,394.304871 
	C989.256958,398.066864 1000.503052,398.469025 1010.455994,393.909973 
	C1018.351379,390.293396 1025.743652,385.165009 1032.541626,379.692169 
	C1038.404175,374.972473 1043.113403,368.820251 1048.729980,363.707214 
	C1048.862793,363.842041 1048.995728,363.976868 1049.048218,364.871735 
	C1044.056519,377.511993 1039.213867,390.214203 1034.003418,402.763580 
	C1031.756836,408.174591 1028.763550,413.277039 1026.082642,418.505829 
	C1022.650879,425.199005 1019.522766,432.075256 1015.681458,438.525787 
	C1004.952026,456.543152 993.321228,473.977875 976.419739,486.916229 
	C966.731506,494.332764 957.080566,502.368042 946.173279,507.479553 
	C932.157166,514.047913 917.093933,518.676331 902.113770,522.805176 
	C888.759521,526.485840 875.095947,529.651184 860.052429,529.016052 
	C848.349060,529.082764 836.645630,529.149536 824.024902,529.098999 
	C811.291992,527.705872 798.488281,526.767151 785.845642,524.795166 
	C772.496277,522.712952 759.233337,519.939636 746.055908,516.928955 
	C731.773254,513.665710 717.566895,510.017242 703.452209,506.087799 
	C692.972412,503.170258 682.717224,499.454407 672.315613,496.244812 
	C662.662659,493.266205 652.906616,490.619202 643.270996,487.587738 
	C630.735107,483.643738 618.295471,479.394470 605.771851,475.410522 
	C597.404480,472.748749 588.932739,470.415649 580.562012,467.763824 
	C569.536682,464.270966 558.712341,460.040466 547.538147,457.143005 
	C526.311951,451.639099 504.932800,446.706909 483.550171,441.831177 
	C470.843628,438.933807 458.058441,436.312653 445.218018,434.091003 
	C433.151794,432.003265 420.971344,430.568359 408.832275,428.911346 
	C396.504303,427.228577 384.197815,425.290070 371.820953,424.095764 
	C362.270355,423.174133 352.625458,423.229950 342.486664,422.190399 
	C334.688263,422.126953 326.889160,421.977722 319.091827,422.042938 
	C316.046722,422.068390 313.005646,422.575928 309.035858,422.966797 
	C285.410889,425.049469 261.785919,427.132141 238.464737,429.188019 
	C241.300140,419.734436 244.315491,409.336151 247.541656,399.003693 
	C252.633163,382.697205 257.913269,366.449677 263.027039,350.150024 
	C268.923340,331.355988 274.647217,312.507629 280.597900,293.730988 
	C284.278381,282.117523 288.241791,270.593750 292.740143,258.623871 
	C294.858856,251.633240 296.723724,244.552429 299.165649,237.676590 
	C301.753601,230.389755 299.035248,221.633636 292.870941,219.044159 
	C285.177155,215.812180 277.733551,221.035461 275.330597,231.316406 
	C274.202179,235.011826 273.073792,238.707245 271.735504,243.089951 
	C270.518219,240.932404 269.698700,239.698700 269.092163,238.367920 
	C266.035828,231.662369 260.901825,226.149918 254.978867,222.764099 
	C238.217087,213.182388 220.568237,215.764160 203.990601,223.275330 
	C190.077301,229.579300 179.494431,240.854248 169.579208,252.246735 
	C164.426941,258.166687 159.982147,265.027313 156.652328,272.135071 
	C151.155594,283.868256 146.301117,295.972626 142.204285,308.263306 
	C139.972168,314.959778 140.052658,322.398193 138.743591,329.437561 
	C136.363266,342.237366 137.770462,355.022247 141.748749,366.934479 
	C146.850372,382.210205 156.884949,393.749176 174.374573,395.593872 
	C184.547058,396.666779 195.067993,397.151001 203.976105,391.256104 
	C212.527283,385.597412 220.245773,378.680389 228.713715,372.701538 
	C228.842590,372.828949 228.971451,372.956329 229.035675,373.876801 
	C228.152176,377.337738 227.443710,380.854797 226.355408,384.250061 
	C221.137711,400.528229 215.716293,416.741852 210.616562,433.056335 
	C209.569855,436.404877 207.802032,437.991089 204.551758,439.051178 
	C194.235672,442.415771 183.815094,445.619385 173.859756,449.878296 
	C166.424759,453.059021 159.514343,457.562744 152.603439,461.852814 
	C135.359085,472.557617 121.659218,486.610077 112.964317,505.165009 
	C106.309166,519.367065 105.689659,534.280396 110.280945,548.891357 
	C114.908119,563.616333 131.586411,575.906311 145.164932,574.894043 
	C155.558121,574.119263 164.684021,569.264893 172.554474,562.789795 
	C188.332657,549.808960 197.964813,532.252869 206.766907,514.263367 
	C209.979645,507.697266 212.754761,500.898346 215.401245,494.078247 
	C219.405869,483.758240 223.260956,473.374329 226.871552,462.911255 
	C227.845184,460.089783 229.084412,458.481415 232.074432,457.963867 
	C241.386871,456.351959 250.669708,454.569153 260.803253,452.957031 
	C261.557343,452.656738 262.293030,452.157074 263.068207,452.085632 
	C278.140289,450.695831 293.197571,448.578766 308.297607,448.201782 
	C327.375732,447.725464 346.490417,448.630188 365.586945,449.048553 
	C369.361420,449.131256 373.141235,449.586670 376.890625,450.081909 
	C388.742218,451.647278 400.587250,453.266357 412.422455,454.951355 
	C428.666779,457.264130 444.935669,459.437775 461.124237,462.095947 
	C470.916718,463.703888 480.659363,465.792145 490.279297,468.235931 
	C508.574982,472.883636 526.766602,477.941132 545.698669,482.979950 
	C546.798584,483.263672 547.898499,483.547394 549.674316,484.179291 
	C554.672729,485.559052 559.719543,486.785553 564.660645,488.346802 
	C580.488342,493.347961 596.281494,498.458557 612.078918,503.555084 
	C624.455200,507.547882 636.779663,511.705566 649.196350,515.567749 
	C665.290771,520.573853 681.421997,525.468506 697.600586,530.194885 
	C705.997925,532.648071 714.531250,534.635864 723.532043,537.061707 
	C723.831909,537.301270 724.131775,537.540894 725.153320,537.966125 
	C734.002747,539.977905 742.813538,542.184387 751.710999,543.954468 
	C764.101379,546.419556 776.556580,548.558105 789.803284,550.975159 
	C791.186340,551.018921 792.569336,551.062683 794.390015,551.744385 
	C795.928467,551.774902 797.466980,551.805359 799.836365,551.971436 
	C807.474182,552.979309 815.102417,554.741882 822.751709,554.838013 
	C838.684082,555.038513 854.674316,554.994812 870.551147,553.829895 
	C882.569702,552.948120 894.528992,550.558044 906.363525,548.109070 
	C914.612061,546.402100 922.712646,543.770264 930.689636,541.004456 
	C948.242310,534.918457 964.654846,526.740601 979.865906,515.789856 
	C999.787598,501.447784 1016.497986,484.127563 1029.831543,463.784851 
	C1038.454346,450.629028 1045.807617,436.553040 1052.743286,422.405731 
	C1058.934082,409.777649 1063.999756,396.575165 1069.128540,383.456726 
	C1072.831909,373.984039 1075.796753,364.223877 1079.141602,354.609558 
	C1082.981567,343.571808 1087.089722,332.622192 1090.688232,321.506989 
	C1094.098145,310.974792 1096.731812,300.189026 1100.221924,289.685944 
	C1102.385986,283.173645 1104.459229,276.905182 1104.127075,269.816345 
	C1103.636230,259.344025 1103.903931,248.830322 1104.044678,238.336868 
	C1104.104126,233.906830 1101.186768,232.189468 1097.843262,231.135010 
	C1094.552368,230.097198 1092.645264,232.234604 1091.417969,235.109146 
	C1089.316162,240.032104 1087.276611,244.987106 1084.994751,249.826752 
	C1078.062134,264.530487 1071.474976,279.422150 1063.897827,293.789490 
	C1057.014648,306.840942 1049.044312,319.321198 1041.491699,332.016693 
	C1033.916382,344.750519 1025.052612,356.278015 1013.191162,365.550934 
	C1006.254150,370.974121 998.891296,372.841461 990.631897,371.803925 
	C988.627197,371.552063 986.563782,369.407623 985.095093,367.657104 
	C978.765564,360.113190 980.345093,350.931854 981.509827,342.546753 
	C983.025818,331.633057 986.086853,320.888062 989.077148,310.237274 
	C992.451965,298.216827 996.279907,286.311523 1000.291016,274.485077 
	C1004.416199,262.322113 1009.085022,250.344345 1013.313965,238.215118 
	C1014.194946,235.688263 1014.999390,232.663925 1014.422485,230.200684 
	C1013.326965,225.523758 1010.117493,221.961761 1005.167236,221.080780 
	C998.688110,219.927719 993.981567,222.306778 991.010864,228.491638 
	C988.483704,233.753281 986.584290,239.333344 984.641357,244.854996 
	C980.933044,255.393921 977.411743,265.998505 973.774841,276.562775 
	C970.776794,285.271545 968.146790,294.140106 964.568298,302.605927 
	C961.417969,310.058838 957.390259,317.172028 953.368286,324.217316 
	C948.518494,332.712830 943.653564,341.250153 938.049438,349.246826 
	C934.379700,354.483276 929.494812,358.898743 924.961121,363.491364 
	C919.202759,369.324738 912.496155,372.774567 903.880005,372.085297 
	C897.020874,371.536591 892.239258,367.579712 892.039917,360.797180 
	C891.839172,353.967712 891.548462,347.071198 892.250488,340.302917 
	C893.088501,332.223541 894.481995,324.133759 896.470398,316.259430 
	C898.816528,306.968353 901.979004,297.877960 904.926392,288.745392 
	C910.076355,272.788269 915.360535,256.874542 920.534790,240.925186 
	C924.449951,228.856888 928.231812,216.745010 932.205505,204.696259 
	C932.782349,202.947357 934.100525,201.442963 935.989624,199.969437 
	C946.655762,199.979568 957.322144,200.023819 967.987854,199.957657 
	C969.357605,199.949173 970.723877,199.367188 972.835754,199.002960 
	C980.782532,196.590210 983.650696,187.464905 978.579224,181.045212 
	C973.701965,174.871185 967.291870,174.562653 960.153870,175.319427 
	C954.548340,175.913727 948.829407,175.438690 942.668274,175.438690 
	C944.864197,168.819611 946.941650,162.517548 949.045654,156.224365 
	C953.884705,141.750183 958.582642,127.225914 963.666748,112.838173 
	C965.445190,107.805267 965.709167,103.209671 962.386780,98.968864 
	C959.571167,95.374962 952.501465,93.384094 948.395569,95.325294 
	C943.650940,97.568489 940.418457,101.512329 938.903015,106.670502 
	C937.629578,111.004639 936.364502,115.341316 935.118347,119.683357 
	C934.039307,123.443069 932.992004,127.211884 931.325500,131.341476 
	C930.943237,132.893875 930.560974,134.446289 929.891479,136.598648 
	C929.559631,137.388458 929.227783,138.178268 928.265259,139.363724 
	C924.374268,151.381119 920.483337,163.398499 916.844238,174.637909 
	C913.170288,175.078339 910.322937,175.558945 907.457336,175.727463 
	C903.987427,175.931534 900.499878,175.815063 897.023804,175.940918 
	C893.036499,176.085281 888.933594,175.811325 885.095825,176.674591 
	C879.108093,178.021500 875.236450,184.263931 875.993591,190.115463 
	C876.605286,194.843552 882.582703,199.910828 887.995056,199.986237 
	C894.304749,200.074142 900.618164,199.900604 907.595398,200.189392 
	C904.419189,210.369385 901.358398,220.587234 898.035461,230.719116 
	C894.446472,241.662308 890.549988,252.504333 886.904968,263.429657 
	C884.098938,271.840302 882.191650,280.630035 878.613037,288.686310 
	C872.148804,303.238708 864.796204,317.399902 857.673340,331.653870 
	C855.864502,335.273468 853.780029,338.816315 851.379883,342.067963 
	C844.296326,351.664703 837.437073,361.488647 827.133850,369.012238 
	C825.304688,369.717041 823.516418,370.564514 821.639343,371.102448 
	C812.491150,373.724182 804.795349,371.722595 802.082520,361.575867 
	C801.163452,358.138519 800.750610,354.565857 800.033569,351.048157 
	C800.033569,351.048157 800.026978,351.120972 800.509460,350.928711 
	C800.618347,350.628510 800.727295,350.328308 800.974182,349.146667 
	C801.332947,345.214813 801.189697,341.157257 802.137085,337.372772 
	C806.278320,320.830017 810.665039,304.347168 815.141479,287.891174 
	C815.987671,284.780487 817.842651,281.957916 818.893616,278.886566 
	C821.784851,270.437805 824.485413,261.923950 827.282715,253.442902 
	C829.199036,247.632874 831.151062,241.834656 833.722595,235.655899 
	C833.821838,233.498215 834.553223,231.128448 833.912476,229.219086 
	C830.919861,220.301071 818.872681,216.544647 811.280823,226.318939 
	C809.174011,231.939438 807.076843,237.563568 804.958313,243.179626 
	C801.007874,253.652191 796.179199,263.889496 793.313843,274.650208 
	C789.981323,287.165009 783.776001,297.176208 773.584351,304.925720 
	C767.437012,309.600037 755.583191,310.688171 750.081299,306.955444 
	C750.498108,306.094727 750.967896,305.240967 751.336670,304.345551 
	C755.895691,293.275879 760.439941,282.200073 765.639404,270.652191 
	C766.026123,268.925049 766.265442,267.148560 766.824219,265.479004 
	C769.703308,256.876678 770.722839,248.078552 769.955994,238.245621 
	C768.906006,234.671616 768.133301,230.987000 766.758850,227.542465 
	C760.242554,211.211807 742.323303,206.700302 727.621582,216.878906 
	C711.365112,228.133957 705.508484,244.993668 704.208435,263.408661 
	C703.013611,280.332764 706.844055,296.548645 716.405029,311.050537 
	C717.137756,312.161865 717.201172,314.363708 716.601379,315.577026 
	C715.087524,318.639130 713.158630,321.528595 711.146057,324.306061 
	C701.784180,337.226166 692.337341,350.084839 682.310608,363.234406 
	C678.867126,366.194733 675.423645,369.155090 671.286194,372.712006 
	C670.722473,369.468262 670.046143,367.434357 670.065552,365.407135 
	C670.319824,338.867432 670.662231,312.328552 671.031616,285.790131 
	C671.049438,284.511566 671.523254,283.239380 671.956787,281.045502 
	C671.919006,273.691528 671.881226,266.337524 671.971069,258.242157 
	C672.036011,257.494904 672.100891,256.747681 672.844543,255.482300 
z" />
  <path fill="#C37150" opacity="1.000000" stroke="none" d="
M860.985413,529.077881 
	C875.095947,529.651184 888.759521,526.485840 902.113770,522.805176 
	C917.093933,518.676331 932.157166,514.047913 946.173279,507.479553 
	C957.080566,502.368042 966.731506,494.332764 976.419739,486.916229 
	C993.321228,473.977875 1004.952026,456.543152 1015.681458,438.525787 
	C1019.522766,432.075256 1022.650879,425.199005 1026.082642,418.505829 
	C1028.763550,413.277039 1031.756836,408.174591 1034.003418,402.763580 
	C1039.213867,390.214203 1044.056519,377.511993 1049.371094,364.321106 
	C1050.099487,362.652008 1050.505005,361.533569 1050.910522,360.415161 
	C1050.707764,360.323547 1050.505127,360.231934 1050.302368,360.140320 
	C1049.645752,361.194000 1048.989136,362.247681 1048.332520,363.301392 
	C1043.113403,368.820251 1038.404175,374.972473 1032.541626,379.692169 
	C1025.743652,385.165009 1018.351379,390.293396 1010.455994,393.909973 
	C1000.503052,398.469025 989.256958,398.066864 979.352173,394.304871 
	C968.810303,390.300903 961.214966,382.095367 958.996765,370.204529 
	C958.668396,368.444427 958.335693,366.685120 957.672729,364.327423 
	C948.814331,362.103394 941.068237,369.888031 943.041931,378.098999 
	C941.911255,379.338287 940.780579,380.577576 939.010254,381.770203 
	C934.702148,380.304565 931.772217,381.429474 928.834290,383.889954 
	C922.469971,389.219757 916.023254,393.306610 906.644592,392.293304 
	C896.823059,391.232147 887.560303,390.596893 881.177307,381.765442 
	C879.196411,379.024658 876.857056,378.867920 874.954834,382.108856 
	C870.362732,375.830048 867.032227,369.062866 866.830017,361.489410 
	C861.081299,367.945038 855.406494,374.879913 849.137817,381.228424 
	C839.195068,391.297546 827.250610,397.231659 812.729248,396.973999 
	C800.147522,396.750702 783.530762,385.362549 780.462402,374.971985 
	C776.620117,361.960541 775.816956,348.793945 777.944885,335.404541 
	C778.250244,333.482971 777.987244,331.471039 777.987244,329.076294 
	C764.867310,335.791901 751.557678,335.682770 737.857422,328.427826 
	C733.313416,335.428009 729.235168,342.435455 724.442505,348.914398 
	C718.141296,357.432800 711.671875,365.894928 704.539490,373.710205 
	C698.066223,380.803223 691.286011,388.044281 683.330627,393.196716 
	C678.526184,396.308380 671.000366,397.099182 665.086792,396.242920 
	C650.860168,394.182922 647.643616,383.788239 646.077881,372.619690 
	C645.185303,366.252563 645.092957,359.773254 644.578491,352.467133 
	C642.666870,355.293304 640.981445,357.654694 639.430908,360.101562 
	C634.550903,367.802216 628.344849,374.301941 621.987366,380.807922 
	C616.757446,386.160034 611.322510,391.056671 604.436462,393.652161 
	C596.812378,396.525818 588.937439,397.843018 580.478149,396.285248 
	C561.514771,392.793243 554.765320,379.539673 551.974976,362.648834 
	C551.910583,362.258911 551.734802,361.887390 551.576721,361.402405 
	C540.870422,372.897919 530.706482,384.734253 516.496338,391.717621 
	C505.924744,396.912872 494.705292,397.937103 483.125916,395.603760 
	C464.739258,391.898682 455.681091,379.275574 450.948242,362.390625 
	C450.740448,361.649323 450.232880,360.992065 449.738342,360.056000 
	C446.616608,364.107574 443.666412,367.936554 440.080444,371.780273 
	C433.843506,371.362854 428.540527,375.130585 427.930756,380.390808 
	C427.800018,381.518707 429.330200,382.839111 430.095276,384.070831 
	C427.179901,386.132599 424.194366,388.102783 421.361664,390.272491 
	C410.847748,398.325623 398.907990,398.842926 387.496613,394.243469 
	C381.897552,391.986755 376.432495,386.327148 373.622009,380.821503 
	C366.380371,366.635345 366.854858,351.517395 371.990845,336.499695 
	C376.090363,324.512512 379.843536,312.404572 384.087036,300.469910 
	C386.251251,294.383270 389.618042,288.710388 391.613922,282.581085 
	C394.387390,274.063690 394.881012,269.487030 385.409058,266.226562 
	C377.326538,263.444397 369.143433,260.954498 361.482758,258.489136 
	C354.139404,273.662933 347.137146,287.991272 340.265350,302.381836 
	C335.853668,311.620605 331.598846,320.935028 327.339111,330.245422 
	C323.844360,337.883789 317.527802,341.780334 311.656860,338.864288 
	C304.683655,335.400757 300.369080,329.597839 304.554565,321.770325 
	C308.374939,314.625671 311.296631,307.006653 314.832642,299.702362 
	C320.561920,287.867615 326.551117,276.158600 332.264954,264.316559 
	C334.795166,259.072632 336.920624,253.633438 339.349884,248.004730 
	C328.701721,239.695328 322.289001,228.244598 323.239899,214.138580 
	C324.261505,198.983490 330.482544,187.471893 345.187683,182.818665 
	C352.169189,180.609467 359.779144,180.594650 366.762939,186.849762 
	C377.907104,196.831116 376.812378,208.719467 374.809082,221.150009 
	C374.038696,225.930130 372.331543,230.559280 370.960022,235.591873 
	C380.107697,238.734772 389.106354,242.082962 398.263519,244.919510 
	C417.643677,250.922729 423.112671,270.452271 416.092407,287.002594 
	C411.981293,296.694580 408.489380,306.662811 405.038635,316.617645 
	C401.320953,327.342529 397.544098,338.083191 394.662842,349.045593 
	C393.341217,354.074066 393.802338,359.659332 393.986572,364.973663 
	C394.231506,372.037628 398.099823,373.590363 406.614532,371.072113 
	C413.461609,369.047089 417.558655,363.388550 421.813385,358.289368 
	C425.772217,353.544739 429.369141,348.373474 432.351685,342.963470 
	C439.768738,329.509888 447.733307,316.224030 453.606598,302.092987 
	C458.973114,289.181061 463.743042,276.055695 471.380402,264.303711 
	C480.223694,250.696030 490.940094,238.433807 504.425232,229.475479 
	C519.996033,219.131638 537.137207,213.357635 556.304810,218.940140 
	C564.614807,221.360428 571.597168,225.778870 576.867493,232.539658 
	C578.983459,235.254135 580.044800,238.790726 582.229736,243.273651 
	C584.076782,237.612030 585.854797,233.183502 586.940247,228.591263 
	C588.502380,221.982788 600.615662,218.311646 606.402466,222.915100 
	C612.177185,227.508926 612.835022,231.379150 610.247498,238.443237 
	C604.423828,254.342209 598.739502,270.298950 593.384277,286.360809 
	C588.761475,300.226227 583.787537,314.072845 580.627136,328.296234 
	C578.116577,339.594849 577.747253,351.431946 577.156494,363.066986 
	C576.875977,368.590546 581.295715,371.779419 586.903625,372.053619 
	C598.892639,372.639832 606.534424,365.403931 612.900269,356.898010 
	C619.721130,347.784027 626.010010,338.197205 631.710571,328.342133 
	C636.606995,319.877380 640.537842,310.827667 644.483337,301.855316 
	C645.690857,299.109467 645.874023,295.772217 645.948120,292.691864 
	C646.415283,273.288666 646.718506,253.881577 647.078186,234.475800 
	C647.188477,228.525055 650.215637,223.681473 654.878784,221.979431 
	C661.140259,219.694016 667.233337,221.018173 671.068542,225.624100 
	C671.628235,226.296295 671.716858,227.360657 672.038208,229.064758 
	C671.979492,232.592850 671.906006,235.299713 671.481262,238.063080 
	C667.416870,239.176819 667.287964,242.157547 667.394165,245.202927 
	C667.473816,247.487000 668.214722,249.885162 667.730896,252.021881 
	C666.844971,255.934692 668.293152,257.949982 671.843445,258.983551 
	C671.881226,266.337524 671.919006,273.691528 671.726440,281.135834 
	C670.957520,277.471375 670.419006,273.716614 669.880493,269.961823 
	C669.391296,269.973145 668.902161,269.984467 668.412964,269.995789 
	C667.987732,270.792084 667.274780,271.557434 667.185181,272.389832 
	C666.705322,276.850708 666.063232,281.328583 666.067261,285.800049 
	C666.076233,295.777374 666.742737,305.759796 666.568787,315.730133 
	C666.372253,326.999542 665.561829,338.258698 664.986267,349.520660 
	C664.876465,351.669739 665.239380,354.137512 664.315796,355.897736 
	C660.946838,362.319153 665.824585,367.414307 666.701904,373.114258 
	C666.786072,373.661102 668.525452,374.189697 669.542542,374.299408 
	C670.963074,374.452637 672.449768,374.001251 673.868591,374.160706 
	C680.827393,374.942688 685.129822,369.671326 682.920959,362.965485 
	C692.337341,350.084839 701.784180,337.226166 711.146057,324.306061 
	C713.158630,321.528595 715.087524,318.639130 716.601379,315.577026 
	C717.201172,314.363708 717.137756,312.161865 716.405029,311.050537 
	C706.844055,296.548645 703.013611,280.332764 704.208435,263.408661 
	C705.508484,244.993668 711.365112,228.133957 727.621582,216.878906 
	C742.323303,206.700302 760.242554,211.211807 766.758850,227.542465 
	C768.133301,230.987000 768.906006,234.671616 769.744873,239.021698 
	C769.357056,241.936798 769.334167,244.103363 768.957581,246.206604 
	C768.624451,248.067383 768.469360,250.720413 767.246277,251.531158 
	C761.655762,255.236969 761.592285,260.928955 761.060913,266.519684 
	C760.796753,269.298676 762.082153,270.951904 764.988037,271.125885 
	C760.439941,282.200073 755.895691,293.275879 751.336670,304.345551 
	C750.967896,305.240967 750.498108,306.094727 750.081299,306.955444 
	C755.583191,310.688171 767.437012,309.600037 773.584351,304.925720 
	C783.776001,297.176208 789.981323,287.165009 793.313843,274.650208 
	C796.179199,263.889496 801.007874,253.652191 804.958313,243.179626 
	C807.076843,237.563568 809.174011,231.939438 811.954468,226.223602 
	C814.715332,226.046234 816.862366,226.249466 818.877808,225.826187 
	C823.988037,224.752991 827.780823,226.756073 829.848816,231.585831 
	C830.552246,233.228592 831.986755,234.558350 833.087158,236.031174 
	C831.151062,241.834656 829.199036,247.632874 827.282715,253.442902 
	C824.485413,261.923950 821.784851,270.437805 818.893616,278.886566 
	C817.842651,281.957916 815.987671,284.780487 815.141479,287.891174 
	C810.665039,304.347168 806.278320,320.830017 802.137085,337.372772 
	C801.189697,341.157257 801.332947,345.214813 800.763794,349.764313 
	C800.372498,350.624420 800.197021,350.870758 800.026978,351.120972 
	C800.026978,351.120972 800.033569,351.048157 799.702759,351.141632 
	C798.266724,352.687256 796.334717,354.066071 796.198242,355.604218 
	C795.580078,362.570648 797.388306,369.334076 803.355408,373.125214 
	C810.664185,377.768738 819.028687,378.446289 827.133301,374.488678 
	C829.506836,373.329620 830.505615,371.191254 827.897034,368.951019 
	C837.437073,361.488647 844.296326,351.664703 851.379883,342.067963 
	C853.780029,338.816315 855.864502,335.273468 857.673340,331.653870 
	C864.796204,317.399902 872.148804,303.238708 878.613037,288.686310 
	C882.191650,280.630035 884.098938,271.840302 886.904968,263.429657 
	C890.549988,252.504333 894.446472,241.662308 898.035461,230.719116 
	C901.358398,220.587234 904.419189,210.369385 906.938110,199.864471 
	C900.356567,196.180664 894.069153,194.586075 887.191040,194.315384 
	C885.410095,194.245300 883.014954,190.865997 882.251282,188.559921 
	C881.253601,185.547211 882.634216,182.521118 886.012878,181.369141 
	C888.167175,180.634613 890.498047,180.120453 892.763428,180.064667 
	C899.750854,179.892593 906.749023,180.115921 913.733643,179.893082 
	C915.563660,179.834702 918.386902,179.221466 918.993591,177.993332 
	C921.608276,172.700867 923.607422,167.100143 925.752808,161.581390 
	C927.120544,158.062988 928.357117,154.493469 929.643677,150.943665 
	C931.128906,146.845474 932.596741,142.744247 928.895935,138.968079 
	C929.227783,138.178268 929.559631,137.388458 930.333313,136.177322 
	C931.160278,134.162888 931.545410,132.569778 931.930603,130.976669 
	C932.992004,127.211884 934.039307,123.443069 935.118347,119.683357 
	C936.364502,115.341316 937.629578,111.004639 938.903015,106.670502 
	C940.418457,101.512329 943.650940,97.568489 948.395569,95.325294 
	C952.501465,93.384094 959.571167,95.374962 962.386780,98.968864 
	C965.709167,103.209671 965.445190,107.805267 963.666748,112.838173 
	C958.582642,127.225914 953.884705,141.750183 949.045654,156.224365 
	C946.941650,162.517548 944.864197,168.819611 942.668274,175.438690 
	C948.829407,175.438690 954.548340,175.913727 960.153870,175.319427 
	C967.291870,174.562653 973.701965,174.871185 978.579224,181.045212 
	C983.650696,187.464905 980.782532,196.590210 971.990051,199.015564 
	C965.029846,199.016891 958.912903,198.893311 952.801514,199.026459 
	C946.889954,199.155273 940.984009,199.548401 935.075562,199.825439 
	C934.100525,201.442963 932.782349,202.947357 932.205505,204.696259 
	C928.231812,216.745010 924.449951,228.856888 920.534790,240.925186 
	C915.360535,256.874542 910.076355,272.788269 904.926392,288.745392 
	C901.979004,297.877960 898.816528,306.968353 896.470398,316.259430 
	C894.481995,324.133759 893.088501,332.223541 892.250488,340.302917 
	C891.548462,347.071198 891.839172,353.967712 892.039917,360.797180 
	C892.239258,367.579712 897.020874,371.536591 903.880005,372.085297 
	C912.496155,372.774567 919.202759,369.324738 924.961121,363.491364 
	C929.494812,358.898743 934.379700,354.483276 938.049438,349.246826 
	C943.653564,341.250153 948.518494,332.712830 953.368286,324.217316 
	C957.390259,317.172028 961.417969,310.058838 964.568298,302.605927 
	C968.146790,294.140106 970.776794,285.271545 973.774841,276.562775 
	C977.411743,265.998505 980.933044,255.393921 984.641357,244.854996 
	C986.584290,239.333344 988.483704,233.753281 991.010864,228.491638 
	C993.981567,222.306778 998.688110,219.927719 1005.167236,221.080780 
	C1010.117493,221.961761 1013.326965,225.523758 1014.422485,230.200684 
	C1014.999390,232.663925 1014.194946,235.688263 1013.313965,238.215118 
	C1009.085022,250.344345 1004.416199,262.322113 1000.291016,274.485077 
	C996.279907,286.311523 992.451965,298.216827 989.077148,310.237274 
	C986.086853,320.888062 983.025818,331.633057 981.509827,342.546753 
	C980.345093,350.931854 978.765564,360.113190 985.095093,367.657104 
	C986.563782,369.407623 988.627197,371.552063 990.631897,371.803925 
	C998.891296,372.841461 1006.254150,370.974121 1013.191162,365.550934 
	C1025.052612,356.278015 1033.916382,344.750519 1041.491699,332.016693 
	C1049.044312,319.321198 1057.014648,306.840942 1063.897827,293.789490 
	C1071.474976,279.422150 1078.062134,264.530487 1084.994751,249.826752 
	C1087.276611,244.987106 1089.316162,240.032104 1091.417969,235.109146 
	C1092.645264,232.234604 1094.552368,230.097198 1097.843262,231.135010 
	C1101.186768,232.189468 1104.104126,233.906830 1104.044678,238.336868 
	C1103.903931,248.830322 1103.636230,259.344025 1104.127075,269.816345 
	C1104.459229,276.905182 1102.385986,283.173645 1100.221924,289.685944 
	C1096.731812,300.189026 1094.098145,310.974792 1090.688232,321.506989 
	C1087.089722,332.622192 1082.981567,343.571808 1079.141602,354.609558 
	C1075.796753,364.223877 1072.831909,373.984039 1069.128540,383.456726 
	C1063.999756,396.575165 1058.934082,409.777649 1052.743286,422.405731 
	C1045.807617,436.553040 1038.454346,450.629028 1029.831543,463.784851 
	C1016.497986,484.127563 999.787598,501.447784 979.865906,515.789856 
	C964.654846,526.740601 948.242310,534.918457 930.689636,541.004456 
	C922.712646,543.770264 914.612061,546.402100 906.363525,548.109070 
	C894.528992,550.558044 882.569702,552.948120 870.551147,553.829895 
	C854.674316,554.994812 838.684082,555.038513 822.751709,554.838013 
	C815.102417,554.741882 807.474182,552.979309 799.402771,551.559448 
	C798.290222,550.038818 797.611267,548.930176 796.932312,547.821594 
	C795.938965,548.916504 794.945679,550.011475 793.952393,551.106445 
	C792.569336,551.062683 791.186340,551.018921 789.247681,550.593018 
	C786.727478,544.689148 781.735596,544.771179 777.207581,544.041565 
	C773.782898,543.489685 770.276550,543.299438 766.924866,542.470032 
	C760.680725,540.924927 754.583984,538.754272 748.309814,537.369568 
	C743.143433,536.229248 737.742493,536.154480 732.572449,535.026062 
	C729.025635,534.251831 726.379150,534.573303 724.431641,537.780518 
	C724.131775,537.540894 723.831909,537.301270 723.244385,536.578003 
	C721.630127,534.637634 720.568359,532.443481 718.930054,531.855347 
	C712.688110,529.614502 706.257507,527.900696 699.902893,525.971802 
	C696.736206,525.010620 693.612366,523.892822 690.414856,523.052673 
	C684.481812,521.493774 678.440308,520.316772 672.567017,518.567627 
	C660.843689,515.076111 649.215576,511.265930 637.519836,507.679901 
	C634.843384,506.859253 631.878418,506.816925 629.343018,505.726379 
	C617.305237,500.548828 605.423889,495.117584 592.096558,493.785919 
	C588.510742,493.427643 585.134277,491.174194 581.613281,489.927490 
	C573.180847,486.941833 564.802551,483.743591 556.208435,481.318695 
	C554.201172,480.752319 551.422302,482.920929 548.998413,483.831146 
	C547.898499,483.547394 546.798584,483.263672 545.299011,482.552917 
	C543.252930,480.453003 541.898560,477.911835 539.914001,477.244232 
	C523.590271,471.753235 507.079712,466.917999 490.032257,464.082458 
	C483.993469,463.078033 478.090240,461.281708 472.077423,460.087036 
	C469.420746,459.559174 466.566345,459.968048 463.940338,459.356537 
	C458.639618,458.122223 453.516266,455.962982 448.172180,455.111115 
	C435.538666,453.097321 422.845306,451.383331 410.127747,449.989899 
	C390.163574,447.802490 370.195801,445.349792 350.161194,444.196838 
	C333.567108,443.241882 316.852386,443.477295 300.232361,444.171936 
	C287.498871,444.704193 274.820648,446.700043 262.139618,448.225830 
	C259.595612,448.531952 257.351959,449.747833 259.964020,452.852661 
	C250.669708,454.569153 241.386871,456.351959 232.074432,457.963867 
	C229.084412,458.481415 227.845184,460.089783 226.871552,462.911255 
	C223.260956,473.374329 219.405869,483.758240 215.401245,494.078247 
	C212.754761,500.898346 209.979645,507.697266 206.766907,514.263367 
	C197.964813,532.252869 188.332657,549.808960 172.554474,562.789795 
	C164.684021,569.264893 155.558121,574.119263 145.164932,574.894043 
	C131.586411,575.906311 114.908119,563.616333 110.280945,548.891357 
	C105.689659,534.280396 106.309166,519.367065 112.964317,505.165009 
	C121.659218,486.610077 135.359085,472.557617 152.603439,461.852814 
	C159.514343,457.562744 166.424759,453.059021 173.859756,449.878296 
	C183.815094,445.619385 194.235672,442.415771 204.551758,439.051178 
	C207.802032,437.991089 209.569855,436.404877 210.616562,433.056335 
	C215.716293,416.741852 221.137711,400.528229 226.355408,384.250061 
	C227.443710,380.854797 228.152176,377.337738 229.327606,373.358459 
	C229.663544,372.396759 229.707550,371.953430 229.751556,371.510101 
	C229.277771,371.778870 228.803986,372.047607 228.330200,372.316345 
	C220.245773,378.680389 212.527283,385.597412 203.976105,391.256104 
	C195.067993,397.151001 184.547058,396.666779 174.374573,395.593872 
	C156.884949,393.749176 146.850372,382.210205 141.748749,366.934479 
	C137.770462,355.022247 136.363266,342.237366 138.743591,329.437561 
	C140.052658,322.398193 139.972168,314.959778 142.204285,308.263306 
	C146.301117,295.972626 151.155594,283.868256 156.652328,272.135071 
	C159.982147,265.027313 164.426941,258.166687 169.579208,252.246735 
	C179.494431,240.854248 190.077301,229.579300 203.990601,223.275330 
	C220.568237,215.764160 238.217087,213.182388 254.978867,222.764099 
	C260.901825,226.149918 266.035828,231.662369 269.092163,238.367920 
	C269.698700,239.698700 270.518219,240.932404 271.735504,243.089951 
	C273.073792,238.707245 274.202179,235.011826 275.931183,231.277191 
	C278.487976,229.893753 280.730377,228.825195 282.343414,227.150452 
	C286.234436,223.110626 293.594147,222.910904 294.331055,227.330627 
	C294.963867,231.126053 293.732727,235.316895 292.903198,239.243591 
	C292.285675,242.166931 290.839691,244.906204 290.055206,247.806580 
	C289.543945,249.696762 289.965912,251.895523 289.245972,253.660873 
	C287.936462,256.871887 288.989380,258.370789 292.078217,259.029724 
	C288.241791,270.593750 284.278381,282.117523 280.597900,293.730988 
	C274.647217,312.507629 268.923340,331.355988 263.027039,350.150024 
	C257.913269,366.449677 252.633163,382.697205 247.541656,399.003693 
	C244.315491,409.336151 241.300140,419.734436 238.464737,429.188019 
	C261.785919,427.132141 285.410889,425.049469 309.966736,422.958435 
	C321.605896,422.917084 332.314209,422.884125 343.022491,422.851196 
	C352.625458,423.229950 362.270355,423.174133 371.820953,424.095764 
	C384.197815,425.290070 396.504303,427.228577 408.832275,428.911346 
	C420.971344,430.568359 433.151794,432.003265 445.218018,434.091003 
	C458.058441,436.312653 470.843628,438.933807 483.550171,441.831177 
	C504.932800,446.706909 526.311951,451.639099 547.538147,457.143005 
	C558.712341,460.040466 569.536682,464.270966 580.562012,467.763824 
	C588.932739,470.415649 597.404480,472.748749 605.771851,475.410522 
	C618.295471,479.394470 630.735107,483.643738 643.270996,487.587738 
	C652.906616,490.619202 662.662659,493.266205 672.315613,496.244812 
	C682.717224,499.454407 692.972412,503.170258 703.452209,506.087799 
	C717.566895,510.017242 731.773254,513.665710 746.055908,516.928955 
	C759.233337,519.939636 772.496277,522.712952 785.845642,524.795166 
	C798.488281,526.767151 811.291992,527.705872 824.850586,529.357971 
	C834.385864,529.757202 843.095520,529.991577 851.805115,529.987000 
	C854.865356,529.985352 857.925293,529.397827 860.985413,529.077881 
M738.018372,276.185242 
	C740.335449,267.807739 742.756531,259.457184 744.932556,251.043198 
	C746.361511,245.518112 747.027710,239.956253 743.088989,234.932831 
	C735.874451,239.876892 734.623413,241.039200 732.578552,247.052109 
	C731.028809,251.609009 730.041016,256.357025 728.730652,261.259460 
	C728.686035,261.510742 728.715759,261.754486 728.955444,262.653717 
	C728.910706,263.100403 728.865967,263.547089 728.109375,264.091705 
	C726.678589,265.280334 724.709106,266.185852 723.909912,267.706390 
	C720.389099,274.405334 722.945923,287.365845 728.908325,292.309082 
	C730.147034,293.336029 733.073425,293.446655 734.613525,292.709045 
	C736.563965,291.774902 738.088013,289.685455 739.444336,287.836273 
	C741.642456,284.839325 740.727905,279.311371 738.018372,276.185242 
M192.624405,468.558502 
	C188.102692,463.770966 183.679932,468.121521 179.499176,469.111328 
	C175.642197,470.024475 173.397736,473.372131 173.374359,478.140625 
	C166.596039,482.904907 159.488297,487.268494 153.106705,492.515320 
	C138.991150,504.120880 131.280563,518.923889 133.096832,537.631409 
	C133.663452,543.467529 140.142471,551.522705 146.751709,548.696045 
	C152.472900,546.249207 158.141342,542.423462 162.263474,537.806030 
	C167.612579,531.814148 172.074539,524.773865 175.733795,517.582153 
	C183.858521,501.614380 191.245331,485.271118 198.932983,469.080933 
	C198.464981,468.681030 197.996979,468.281128 197.528992,467.881226 
	C196.056381,468.268433 194.583786,468.655670 192.624405,468.558502 
M522.482483,358.023163 
	C525.795288,354.722565 529.616577,351.788239 532.313416,348.043976 
	C537.686646,340.583801 542.528687,332.733002 547.424011,324.939209 
	C551.037598,319.186005 554.833008,313.481445 557.767761,307.380188 
	C565.113525,292.108490 566.711609,275.817688 563.759766,259.339874 
	C562.398254,251.739777 558.632690,245.101028 550.018005,242.377823 
	C538.089783,238.607178 527.739075,242.827881 518.702148,249.204605 
	C507.090515,257.398102 497.769531,268.106140 490.559052,280.682892 
	C478.407623,301.877838 471.249451,324.337830 473.197632,348.849823 
	C474.148743,360.816559 477.554108,369.558594 490.386566,371.576172 
	C494.006287,372.145294 497.991852,371.781281 501.576172,370.897858 
	C509.575500,368.926392 516.649841,365.085052 522.482483,358.023163 
M163.079697,328.987183 
	C163.389191,337.571289 163.018097,346.251831 164.216385,354.710022 
	C165.235825,361.905823 168.497620,369.027954 176.632950,370.622925 
	C185.004349,372.264099 193.781952,371.641571 200.864700,366.389526 
	C210.802750,359.020172 219.430740,350.119049 226.558426,339.927185 
	C230.569092,334.192322 234.928345,328.555481 237.940674,322.301361 
	C242.808167,312.195618 250.539505,303.661560 252.407715,291.806580 
	C254.205811,280.396637 254.548645,269.218109 252.955612,257.914032 
	C251.879028,250.274750 244.835144,243.870453 237.211578,241.836899 
	C228.973541,239.639420 221.606812,241.877258 214.506256,245.314529 
	C205.376450,249.734161 197.757660,256.300873 191.900360,264.543915 
	C185.808594,273.116943 179.586411,281.737396 174.755722,291.030731 
	C168.754288,302.576447 165.558090,315.265228 163.079697,328.987183 
M352.004883,210.560974 
	C351.838745,209.375259 351.672607,208.189545 351.353790,205.914124 
	C344.084625,211.024506 348.292877,217.451477 347.715088,222.899490 
	C351.446533,219.945053 350.756165,215.304657 352.004883,210.560974 
z" />
  <path fill="#BD7254" opacity="1.000000" stroke="none" d="
M260.383636,452.904846 
	C257.351959,449.747833 259.595612,448.531952 262.139618,448.225830 
	C274.820648,446.700043 287.498871,444.704193 300.232361,444.171936 
	C316.852386,443.477295 333.567108,443.241882 350.161194,444.196838 
	C370.195801,445.349792 390.163574,447.802490 410.127747,449.989899 
	C422.845306,451.383331 435.538666,453.097321 448.172180,455.111115 
	C453.516266,455.962982 458.639618,458.122223 463.940338,459.356537 
	C466.566345,459.968048 469.420746,459.559174 472.077423,460.087036 
	C478.090240,461.281708 483.993469,463.078033 490.032257,464.082458 
	C507.079712,466.917999 523.590271,471.753235 539.914001,477.244232 
	C541.898560,477.911835 543.252930,480.453003 544.950439,482.477173 
	C526.766602,477.941132 508.574982,472.883636 490.279297,468.235931 
	C480.659363,465.792145 470.916718,463.703888 461.124237,462.095947 
	C444.935669,459.437775 428.666779,457.264130 412.422455,454.951355 
	C400.587250,453.266357 388.742218,451.647278 376.890625,450.081909 
	C373.141235,449.586670 369.361420,449.131256 365.586945,449.048553 
	C346.490417,448.630188 327.375732,447.725464 308.297607,448.201782 
	C293.197571,448.578766 278.140289,450.695831 263.068207,452.085632 
	C262.293030,452.157074 261.557343,452.656738 260.383636,452.904846 
z" />
  <path fill="#BD7254" opacity="1.000000" stroke="none" d="
M549.336365,484.005219 
	C551.422302,482.920929 554.201172,480.752319 556.208435,481.318695 
	C564.802551,483.743591 573.180847,486.941833 581.613281,489.927490 
	C585.134277,491.174194 588.510742,493.427643 592.096558,493.785919 
	C605.423889,495.117584 617.305237,500.548828 629.343018,505.726379 
	C631.878418,506.816925 634.843384,506.859253 637.519836,507.679901 
	C649.215576,511.265930 660.843689,515.076111 672.567017,518.567627 
	C678.440308,520.316772 684.481812,521.493774 690.414856,523.052673 
	C693.612366,523.892822 696.736206,525.010620 699.902893,525.971802 
	C706.257507,527.900696 712.688110,529.614502 718.930054,531.855347 
	C720.568359,532.443481 721.630127,534.637634 722.979858,536.464111 
	C714.531250,534.635864 705.997925,532.648071 697.600586,530.194885 
	C681.421997,525.468506 665.290771,520.573853 649.196350,515.567749 
	C636.779663,511.705566 624.455200,507.547882 612.078918,503.555084 
	C596.281494,498.458557 580.488342,493.347961 564.660645,488.346802 
	C559.719543,486.785553 554.672729,485.559052 549.336365,484.005219 
z" />
  <path fill="#BF7457" opacity="1.000000" stroke="none" d="
M682.615784,363.099945 
	C685.129822,369.671326 680.827393,374.942688 673.868591,374.160706 
	C672.449768,374.001251 670.963074,374.452637 669.542542,374.299408 
	C668.525452,374.189697 666.786072,373.661102 666.701904,373.114258 
	C665.824585,367.414307 660.946838,362.319153 664.315796,355.897736 
	C665.239380,354.137512 664.876465,351.669739 664.986267,349.520660 
	C665.561829,338.258698 666.372253,326.999542 666.568787,315.730133 
	C666.742737,305.759796 666.076233,295.777374 666.067261,285.800049 
	C666.063232,281.328583 666.705322,276.850708 667.185181,272.389832 
	C667.274780,271.557434 667.987732,270.792084 668.412964,269.995789 
	C668.902161,269.984467 669.391296,269.973145 669.880493,269.961823 
	C670.419006,273.716614 670.957520,277.471375 671.640381,281.595184 
	C671.523254,283.239380 671.049438,284.511566 671.031616,285.790131 
	C670.662231,312.328552 670.319824,338.867432 670.065552,365.407135 
	C670.046143,367.434357 670.722473,369.468262 671.286194,372.712006 
	C675.423645,369.155090 678.867126,366.194733 682.615784,363.099945 
z" />
  <path fill="#BF7255" opacity="1.000000" stroke="none" d="
M928.580566,139.165894 
	C932.596741,142.744247 931.128906,146.845474 929.643677,150.943665 
	C928.357117,154.493469 927.120544,158.062988 925.752808,161.581390 
	C923.607422,167.100143 921.608276,172.700867 918.993591,177.993332 
	C918.386902,179.221466 915.563660,179.834702 913.733643,179.893082 
	C906.749023,180.115921 899.750854,179.892593 892.763428,180.064667 
	C890.498047,180.120453 888.167175,180.634613 886.012878,181.369141 
	C882.634216,182.521118 881.253601,185.547211 882.251282,188.559921 
	C883.014954,190.865997 885.410095,194.245300 887.191040,194.315384 
	C894.069153,194.586075 900.356567,196.180664 906.605347,199.690033 
	C900.618164,199.900604 894.304749,200.074142 887.995056,199.986237 
	C882.582703,199.910828 876.605286,194.843552 875.993591,190.115463 
	C875.236450,184.263931 879.108093,178.021500 885.095825,176.674591 
	C888.933594,175.811325 893.036499,176.085281 897.023804,175.940918 
	C900.499878,175.815063 903.987427,175.931534 907.457336,175.727463 
	C910.322937,175.558945 913.170288,175.078339 916.844238,174.637909 
	C920.483337,163.398499 924.374268,151.381119 928.580566,139.165894 
z" />
  <path fill="#BE7456" opacity="1.000000" stroke="none" d="
M875.090698,382.411499 
	C876.857056,378.867920 879.196411,379.024658 881.177307,381.765442 
	C887.560303,390.596893 896.823059,391.232147 906.644592,392.293304 
	C916.023254,393.306610 922.469971,389.219757 928.834290,383.889954 
	C931.772217,381.429474 934.702148,380.304565 938.707581,381.909698 
	C932.426453,390.048859 923.679443,394.024963 913.722412,395.972229 
	C898.278137,398.992584 885.182556,395.485992 875.090698,382.411499 
z" />
  <path fill="#C07657" opacity="1.000000" stroke="none" d="
M292.409180,258.826782 
	C288.989380,258.370789 287.936462,256.871887 289.245972,253.660873 
	C289.965912,251.895523 289.543945,249.696762 290.055206,247.806580 
	C290.839691,244.906204 292.285675,242.166931 292.903198,239.243591 
	C293.732727,235.316895 294.963867,231.126053 294.331055,227.330627 
	C293.594147,222.910904 286.234436,223.110626 282.343414,227.150452 
	C280.730377,228.825195 278.487976,229.893753 276.249573,231.071808 
	C277.733551,221.035461 285.177155,215.812180 292.870941,219.044159 
	C299.035248,221.633636 301.753601,230.389755 299.165649,237.676590 
	C296.723724,244.552429 294.858856,251.633240 292.409180,258.826782 
z" />
  <path fill="#BD7254" opacity="1.000000" stroke="none" d="
M724.792480,537.873291 
	C726.379150,534.573303 729.025635,534.251831 732.572449,535.026062 
	C737.742493,536.154480 743.143433,536.229248 748.309814,537.369568 
	C754.583984,538.754272 760.680725,540.924927 766.924866,542.470032 
	C770.276550,543.299438 773.782898,543.489685 777.207581,544.041565 
	C781.735596,544.771179 786.727478,544.689148 788.838013,550.523682 
	C776.556580,548.558105 764.101379,546.419556 751.710999,543.954468 
	C742.813538,542.184387 734.002747,539.977905 724.792480,537.873291 
z" />
  <path fill="#C27657" opacity="1.000000" stroke="none" d="
M827.515442,368.981628 
	C830.505615,371.191254 829.506836,373.329620 827.133301,374.488678 
	C819.028687,378.446289 810.664185,377.768738 803.355408,373.125214 
	C797.388306,369.334076 795.580078,362.570648 796.198242,355.604218 
	C796.334717,354.066071 798.266724,352.687256 799.739197,351.145081 
	C800.750610,354.565857 801.163452,358.138519 802.082520,361.575867 
	C804.795349,371.722595 812.491150,373.724182 821.639343,371.102448 
	C823.516418,370.564514 825.304688,369.717041 827.515442,368.981628 
z" />
  <path fill="#BE775A" opacity="1.000000" stroke="none" d="
M833.404907,235.843536 
	C831.986755,234.558350 830.552246,233.228592 829.848816,231.585831 
	C827.780823,226.756073 823.988037,224.752991 818.877808,225.826187 
	C816.862366,226.249466 814.715332,226.046234 812.260986,226.045898 
	C818.872681,216.544647 830.919861,220.301071 833.912476,229.219086 
	C834.553223,231.128448 833.821838,233.498215 833.404907,235.843536 
z" />
  <path fill="#C2785A" opacity="1.000000" stroke="none" d="
M765.313721,270.889038 
	C762.082153,270.951904 760.796753,269.298676 761.060913,266.519684 
	C761.592285,260.928955 761.655762,255.236969 767.246277,251.531158 
	C768.469360,250.720413 768.624451,248.067383 768.957581,246.206604 
	C769.334167,244.103363 769.357056,241.936798 769.685303,239.426392 
	C770.722839,248.078552 769.703308,256.876678 766.824219,265.479004 
	C766.265442,267.148560 766.026123,268.925049 765.313721,270.889038 
z" />
  <path fill="#BE7456" opacity="1.000000" stroke="none" d="
M943.350464,377.956177 
	C941.068237,369.888031 948.814331,362.103394 957.658936,363.916748 
	C955.992188,365.577118 953.803650,366.845276 952.067200,368.568848 
	C949.114624,371.499420 946.446594,374.716614 943.350464,377.956177 
z" />
  <path fill="#C17356" opacity="1.000000" stroke="none" d="
M671.907227,258.612854 
	C668.293152,257.949982 666.844971,255.934692 667.730896,252.021881 
	C668.214722,249.885162 667.473816,247.487000 667.394165,245.202927 
	C667.287964,242.157547 667.416870,239.176819 671.536987,238.527756 
	C672.017944,244.624100 672.091919,250.312271 672.165894,256.000427 
	C672.100891,256.747681 672.036011,257.494904 671.907227,258.612854 
z" />
  <path fill="#BF795B" opacity="1.000000" stroke="none" d="
M430.400726,383.930176 
	C429.330200,382.839111 427.800018,381.518707 427.930756,380.390808 
	C428.540527,375.130585 433.843506,371.362854 439.773560,371.920135 
	C436.970306,375.959961 433.838226,379.874725 430.400726,383.930176 
z" />
  <path fill="#CC6666" opacity="1.000000" stroke="none" d="
M935.532593,199.897446 
	C940.984009,199.548401 946.889954,199.155273 952.801514,199.026459 
	C958.912903,198.893311 965.029846,199.016891 971.618042,199.039520 
	C970.723877,199.367188 969.357605,199.949173 967.987854,199.957657 
	C957.322144,200.023819 946.655762,199.979568 935.532593,199.897446 
z" />
  <path fill="#808080" opacity="1.000000" stroke="none" d="
M860.518921,529.046997 
	C857.925293,529.397827 854.865356,529.985352 851.805115,529.987000 
	C843.095520,529.991577 834.385864,529.757202 825.309204,529.416626 
	C836.645630,529.149536 848.349060,529.082764 860.518921,529.046997 
z" />
  <path fill="#808080" opacity="1.000000" stroke="none" d="
M342.754578,422.520782 
	C332.314209,422.884125 321.605896,422.917084 310.430176,422.906982 
	C313.005646,422.575928 316.046722,422.068390 319.091827,422.042938 
	C326.889160,421.977722 334.688263,422.126953 342.754578,422.520782 
z" />
  <path fill="#FF0000" opacity="1.000000" stroke="none" d="
M672.505249,255.741364 
	C672.091919,250.312271 672.017944,244.624100 671.888245,238.471252 
	C671.906006,235.299713 671.979492,232.592850 672.103333,229.437500 
	C672.435791,234.341904 672.802368,239.692154 672.969849,245.048615 
	C673.078491,248.521805 672.896362,252.004089 672.505249,255.741364 
z" />
  <path fill="#BD7254" opacity="1.000000" stroke="none" d="
M794.171204,551.425415 
	C794.945679,550.011475 795.938965,548.916504 796.932312,547.821594 
	C797.611267,548.930176 798.290222,550.038818 798.987305,551.491638 
	C797.466980,551.805359 795.928467,551.774902 794.171204,551.425415 
z" />
  <path fill="#BF7255" opacity="1.000000" stroke="none" d="
M931.628052,131.159058 
	C931.545410,132.569778 931.160278,134.162888 930.476929,135.877350 
	C930.560974,134.446289 930.943237,132.893875 931.628052,131.159058 
z" />
  <path fill="#C27657" opacity="1.000000" stroke="none" d="
M800.268188,351.024841 
	C800.197021,350.870758 800.372498,350.624420 800.694824,350.205048 
	C800.727295,350.328308 800.618347,350.628510 800.268188,351.024841 
z" />
  <path fill="none" opacity="1.000000" stroke="none" d="
M522.236206,358.286926 
	C516.649841,365.085052 509.575500,368.926392 501.576172,370.897858 
	C497.991852,371.781281 494.006287,372.145294 490.386566,371.576172 
	C477.554108,369.558594 474.148743,360.816559 473.197632,348.849823 
	C471.249451,324.337830 478.407623,301.877838 490.559052,280.682892 
	C497.769531,268.106140 507.090515,257.398102 518.702148,249.204605 
	C527.739075,242.827881 538.089783,238.607178 550.018005,242.377823 
	C558.632690,245.101028 562.398254,251.739777 563.759766,259.339874 
	C566.711609,275.817688 565.113525,292.108490 557.767761,307.380188 
	C554.833008,313.481445 551.037598,319.186005 547.424011,324.939209 
	C542.528687,332.733002 537.686646,340.583801 532.313416,348.043976 
	C529.616577,351.788239 525.795288,354.722565 522.236206,358.286926 
z" />
  <path fill="none" opacity="1.000000" stroke="none" d="
M163.236679,328.560730 
	C165.558090,315.265228 168.754288,302.576447 174.755722,291.030731 
	C179.586411,281.737396 185.808594,273.116943 191.900360,264.543915 
	C197.757660,256.300873 205.376450,249.734161 214.506256,245.314529 
	C221.606812,241.877258 228.973541,239.639420 237.211578,241.836899 
	C244.835144,243.870453 251.879028,250.274750 252.955612,257.914032 
	C254.548645,269.218109 254.205811,280.396637 252.407715,291.806580 
	C250.539505,303.661560 242.808167,312.195618 237.940674,322.301361 
	C234.928345,328.555481 230.569092,334.192322 226.558426,339.927185 
	C219.430740,350.119049 210.802750,359.020172 200.864700,366.389526 
	C193.781952,371.641571 185.004349,372.264099 176.632950,370.622925 
	C168.497620,369.027954 165.235825,361.905823 164.216385,354.710022 
	C163.018097,346.251831 163.389191,337.571289 163.236679,328.560730 
z" />
  <path fill="none" opacity="1.000000" stroke="none" d="
M193.111191,469.042908 
	C194.583786,468.655670 196.056381,468.268433 197.528992,467.881226 
	C197.996979,468.281128 198.464981,468.681030 198.932983,469.080933 
	C191.245331,485.271118 183.858521,501.614380 175.733795,517.582153 
	C172.074539,524.773865 167.612579,531.814148 162.263474,537.806030 
	C158.141342,542.423462 152.472900,546.249207 146.751709,548.696045 
	C140.142471,551.522705 133.663452,543.467529 133.096832,537.631409 
	C131.280563,518.923889 138.991150,504.120880 153.106705,492.515320 
	C159.488297,487.268494 166.596039,482.904907 174.041931,477.927856 
	C180.843414,474.824371 186.977295,471.933624 193.111191,469.042908 
z" />
  <path fill="none" opacity="1.000000" stroke="none" d="
M728.821289,263.993774 
	C728.865967,263.547089 728.910706,263.100403 728.938965,262.078522 
	C728.922546,261.503326 728.803162,261.019989 728.803162,261.019989 
	C730.041016,256.357025 731.028809,251.609009 732.578552,247.052109 
	C734.623413,241.039200 735.874451,239.876892 743.088989,234.932831 
	C747.027710,239.956253 746.361511,245.518112 744.932556,251.043198 
	C742.756531,259.457184 740.335449,267.807739 737.640381,276.721619 
	C735.570312,280.667603 733.878235,284.077148 731.800781,288.263306 
	C731.122070,285.911346 730.251404,284.014465 730.069275,282.053650 
	C729.511292,276.046875 729.217712,270.015564 728.821289,263.993774 
z" />
  <path fill="#C27857" opacity="1.000000" stroke="none" d="
M728.465332,264.042725 
	C729.217712,270.015564 729.511292,276.046875 730.069275,282.053650 
	C730.251404,284.014465 731.122070,285.911346 731.800781,288.263306 
	C733.878235,284.077148 735.570312,280.667603 737.579468,277.107971 
	C740.727905,279.311371 741.642456,284.839325 739.444336,287.836273 
	C738.088013,289.685455 736.563965,291.774902 734.613525,292.709045 
	C733.073425,293.446655 730.147034,293.336029 728.908325,292.309082 
	C722.945923,287.365845 720.389099,274.405334 723.909912,267.706390 
	C724.709106,266.185852 726.678589,265.280334 728.465332,264.042725 
z" />
  <path fill="#BE785A" opacity="1.000000" stroke="none" d="
M192.867798,468.800720 
	C186.977295,471.933624 180.843414,474.824371 174.355179,477.769104 
	C173.397736,473.372131 175.642197,470.024475 179.499176,469.111328 
	C183.679932,468.121521 188.102692,463.770966 192.867798,468.800720 
z" />
  <path fill="none" opacity="1.000000" stroke="none" d="
M352.004883,210.994690 
	C350.756165,215.304657 351.446533,219.945053 347.715088,222.899490 
	C348.292877,217.451477 344.084625,211.024506 351.353790,205.914124 
	C351.672607,208.189545 351.838745,209.375259 352.004883,210.994690 
z" />
  <path fill="none" opacity="1.000000" stroke="none" d="
M1048.531250,363.504303 
	C1048.989136,362.247681 1049.645752,361.194000 1050.302368,360.140320 
	C1050.505127,360.231934 1050.707764,360.323547 1050.910522,360.415161 
	C1050.505005,361.533569 1050.099487,362.652008 1049.411377,363.941071 
	C1048.995728,363.976868 1048.862793,363.842041 1048.531250,363.504303 
z" />
  <path fill="none" opacity="1.000000" stroke="none" d="
M228.521957,372.508942 
	C228.803986,372.047607 229.277771,371.778870 229.751556,371.510101 
	C229.707550,371.953430 229.663544,372.396759 229.359924,372.961914 
	C228.971451,372.956329 228.842590,372.828949 228.521957,372.508942 
z" />
  <path fill="#C27857" opacity="1.000000" stroke="none" d="
M728.766907,261.139709 
	C728.803162,261.019989 728.922546,261.503326 728.871216,261.747009 
	C728.715759,261.754486 728.686035,261.510742 728.766907,261.139709 
z" />
</svg>